# xmcd CD database file
#
# Track frame offsets:
#	150
#	19257
#	45137
#	82020
#	97540
#	104900
#	125585
#	131990
#	148235
#	176027
#
# Disc length: 2900 seconds
#
# Revision: 1
# Processed by: cddbd v1.4PL0 Copyright (c) Steve Scherf et al.
# Submitted via: CDex 1.51
#
DISCID=8b0b520a
DTITLE=Paul Wertico - The Yin And The Yout
DYEAR=1995
DGENRE=Jazz
TTITLE0=Peruvian Folk Song
TTITLE1=Don't Look Back
TTITLE2=The Long Chart
TTITLE3=Dance Of The Hunters
TTITLE4=From Here To There
TTITLE5=Days Like These
TTITLE6=Element 103
TTITLE7=The Max Factor
TTITLE8=Triune
TTITLE9=Cowboys and Africans
EXTD=YEAR: 1995
EXTT0=
EXTT1=
EXTT2=
EXTT3=
EXTT4=
EXTT5=
EXTT6=
EXTT7=
EXTT8=
EXTT9=
PLAYORDER=
